<?xml version="1.0" standalone="no"?>
<!DOCTYPE svg PUBLIC "-//W3C//DTD SVG 20010904//EN"
 "http://www.w3.org/TR/2001/REC-SVG-20010904/DTD/svg10.dtd">
<svg version="1.0" xmlns="http://www.w3.org/2000/svg"
 width="16.000000pt" height="16.000000pt" viewBox="0 0 16.000000 16.000000"
 preserveAspectRatio="xMidYMid meet">
<metadata>
Created by potrace 1.11, written by Peter Selinger 2001-2013
</metadata>
<g transform="translate(0.000000,16.000000) scale(0.007843,-0.007843)"
fill="#000000" stroke="none">
<path d="M488 2035 c-2 -2 -23 -5 -48 -8 -60 -8 -69 -10 -110 -30 -93 -45
-141 -130 -155 -272 -11 -113 -14 -342 -4 -379 43 -171 72 -267 125 -417 80
-222 112 -375 129 -604 11 -145 31 -242 58 -276 20 -26 56 -41 102 -41 101 0
153 81 246 383 70 229 118 309 184 309 72 0 112 -67 195 -330 90 -284 141
-362 237 -362 106 0 139 58 158 277 26 306 46 404 138 661 93 260 134 433 130
549 -1 54 -15 244 -19 275 -17 119 -80 202 -181 240 -67 25 -161 28 -220 6
-21 -8 -63 -23 -93 -34 -91 -34 -272 -66 -355 -63 -105 3 -279 38 -354 72 -44
19 -156 50 -163 44z"/>
</g>
</svg>
