<?xml version="1.0" encoding="utf-8"?>
<!-- Generator: Adobe Illustrator 21.0.2, SVG Export Plug-In . SVG Version: 6.00 Build 0)  -->
<!DOCTYPE svg PUBLIC "-//W3C//DTD SVG 1.1//EN" "http://www.w3.org/Graphics/SVG/1.1/DTD/svg11.dtd">
<svg version="1.1" id="Layer_1" xmlns="http://www.w3.org/2000/svg" xmlns:xlink="http://www.w3.org/1999/xlink" x="0px" y="0px"
	 viewBox="0 0 193.8 58.3" style="enable-background:new 0 0 193.8 58.3;" xml:space="preserve">
<style type="text/css">
	.st0{fill:#232940;}
	.st1{fill:#BBD9E8;}
</style>
<g id="Logo_1_">
	<path class="st0" d="M59.3,11.1h-10c-0.6,0-1.1,0.5-1.1,1.1v33.8c0,0.6,0.5,1.1,1.1,1.1h1.1c0.6,0,1.1-0.5,1.1-1.1V30.6h7.8
		c7.7,0,12.4-3.7,12.4-9.7C71.7,13.7,65.3,11.1,59.3,11.1z M59.3,27.4h-7.8v-13h7.8c5.7,0,9.1,2.5,9.1,6.6
		C68.4,25.1,65.1,27.4,59.3,27.4z"/>
	<path class="st0" d="M99.1,11.1h-1.2c-0.4,0-0.7,0.2-0.9,0.5l-10,15.9L77,11.6c-0.2-0.3-0.5-0.5-0.9-0.5h-1.2c-0.4,0-0.8,0.2-1,0.6
		c-0.2,0.3-0.2,0.8,0,1.1L85.3,31v15.1c0,0.6,0.5,1.1,1.1,1.1h1.1c0.6,0,1.1-0.5,1.1-1.1V31L100,12.8c0.2-0.3,0.2-0.8,0-1.1
		C99.8,11.4,99.4,11.1,99.1,11.1z"/>
	<path class="st0" d="M127.1,35l-1.1-0.3c-0.6-0.1-1.1,0.2-1.3,0.8c-1.8,6.2-4.9,9.1-9.9,9.1c-6.7,0-11.5-6.6-11.5-15.7
		c0-8.8,4.7-15.2,11.3-15.2c4.7,0,7.7,2.7,9.6,8.7c0.1,0.3,0.3,0.5,0.5,0.6c0.3,0.1,0.6,0.2,0.8,0.1l1.1-0.4
		c0.6-0.2,0.9-0.8,0.7-1.4c-2.3-7.4-6.5-11-12.7-11c-8.4,0-14.6,7.7-14.6,18.4c0,11,6.2,19,14.8,19c9,0,12.2-8,13.1-11.5
		c0.1-0.3,0-0.6-0.1-0.8C127.6,35.3,127.3,35.1,127.1,35z"/>
	<path class="st0" d="M145.4,25.1L156.6,13c0.3-0.3,0.4-0.8,0.2-1.2c-0.2-0.4-0.6-0.7-1-0.7h-1.4c-0.3,0-0.6,0.1-0.8,0.4L136.6,30
		V12.2c0-0.6-0.5-1.1-1.1-1.1h-1.1c-0.6,0-1.1,0.5-1.1,1.1v33.8c0,0.6,0.5,1.1,1.1,1.1h1.1c0.6,0,1.1-0.5,1.1-1.1V34.7l6.6-7.1
		l12.3,19c0.2,0.3,0.5,0.5,0.9,0.5h1.3c0.4,0,0.8-0.2,1-0.6c0.2-0.4,0.2-0.8,0-1.1L145.4,25.1z"/>
	<path class="st0" d="M187.3,11.7c-0.2-0.3-0.6-0.6-1-0.6h-1.2c-0.4,0-0.7,0.2-0.9,0.5l-10,15.9l-10-15.9c-0.2-0.3-0.5-0.5-0.9-0.5
		h-1.2c-0.4,0-0.8,0.2-1,0.6c-0.2,0.3-0.2,0.8,0,1.1L172.6,31v15.1c0,0.6,0.5,1.1,1.1,1.1h1.1c0.6,0,1.1-0.5,1.1-1.1V31l11.4-18.2
		C187.5,12.5,187.5,12,187.3,11.7z"/>
	<path class="st1" d="M34.9,15.5c-0.3-4.6-5.1-5.3-7.5-4.1c-2.3,1.1-6.3,1.4-6.7,1.4c-0.4,0-4.4-0.3-6.7-1.4
		c-2.4-1.2-7.1-0.5-7.5,4.1c-0.3,4.6-1.1,5.9,2.2,14.6c3.3,8.6,0.6,15,4.7,15c4.1,0,3.9-11.7,7.3-11.8c3.4,0.1,3.2,11.8,7.3,11.8
		c4.1,0,1.4-6.4,4.7-15S35.2,20.1,34.9,15.5z"/>
</g>
</svg>
