<?xml version="1.0" encoding="utf-8"?>
<!-- Generator: Adobe Illustrator 21.0.2, SVG Export Plug-In . SVG Version: 6.00 Build 0)  -->
<!DOCTYPE svg PUBLIC "-//W3C//DTD SVG 1.1//EN" "http://www.w3.org/Graphics/SVG/1.1/DTD/svg11.dtd">
<svg version="1.1" id="Layer_1" xmlns="http://www.w3.org/2000/svg" xmlns:xlink="http://www.w3.org/1999/xlink" x="0px" y="0px"
	 viewBox="0 0 193.8 80" enable-background="new 0 0 193.8 80" xml:space="preserve">
<g id="Logo_3_">
	<g>
		<path fill="#FFFFFF" d="M59.4,7h-10c-0.6,0-1.1,0.5-1.1,1.1v33.7c0,0.6,0.5,1.1,1.1,1.1h1.1c0.6,0,1.1-0.5,1.1-1.1V26.4h7.8
			c7.6,0,12.4-3.7,12.4-9.6C71.8,9.5,65.4,7,59.4,7z M59.4,23.2h-7.8v-13h7.8c5.7,0,9,2.5,9,6.6C68.5,20.9,65.2,23.2,59.4,23.2z"/>
		<path fill="#FFFFFF" d="M99,7h-1.2c-0.4,0-0.7,0.2-0.9,0.5L87,23.3L77,7.5C76.8,7.2,76.5,7,76.1,7h-1.2c-0.4,0-0.8,0.2-0.9,0.6
			c-0.2,0.3-0.2,0.8,0,1.1l11.3,18.1v15c0,0.6,0.5,1.1,1.1,1.1h1.1c0.6,0,1.1-0.5,1.1-1.1v-15L99.9,8.6c0.2-0.3,0.2-0.8,0-1.1
			C99.8,7.2,99.4,7,99,7z"/>
		<path fill="#FFFFFF" d="M126.9,30.8l-1.1-0.3c-0.6-0.1-1.1,0.2-1.3,0.7c-1.8,6.2-4.9,9.1-9.8,9.1c-6.7,0-11.5-6.6-11.5-15.7
			c0-8.8,4.7-15.1,11.2-15.1c4.7,0,7.7,2.7,9.5,8.7c0.1,0.3,0.3,0.5,0.5,0.6c0.3,0.1,0.6,0.2,0.8,0.1l1.1-0.4
			c0.6-0.2,0.9-0.8,0.7-1.4c-2.3-7.3-6.5-10.9-12.7-10.9c-8.4,0-14.5,7.7-14.5,18.3c0,10.9,6.2,18.9,14.8,18.9c9,0,12.1-8,13-11.4
			c0.1-0.3,0-0.6-0.1-0.8C127.4,31,127.2,30.9,126.9,30.8z"/>
		<path fill="#FFFFFF" d="M145.2,20.9l11.2-12.1c0.3-0.3,0.4-0.8,0.2-1.2c-0.2-0.4-0.6-0.6-1-0.6h-1.4c-0.3,0-0.6,0.1-0.8,0.3
			l-17,18.5V8.1c0-0.6-0.5-1.1-1.1-1.1h-1.1c-0.6,0-1.1,0.5-1.1,1.1v33.7c0,0.6,0.5,1.1,1.1,1.1h1.1c0.6,0,1.1-0.5,1.1-1.1V30.5
			l6.6-7.1l12.2,19c0.2,0.3,0.5,0.5,0.9,0.5h1.3c0.4,0,0.8-0.2,1-0.6c0.2-0.3,0.2-0.8,0-1.1L145.2,20.9z"/>
		<path fill="#FFFFFF" d="M187,7.5C186.8,7.2,186.4,7,186,7h-1.2c-0.4,0-0.7,0.2-0.9,0.5l-10,15.8L164,7.5c-0.2-0.3-0.5-0.5-0.9-0.5
			h-1.2c-0.4,0-0.8,0.2-0.9,0.6c-0.2,0.3-0.2,0.8,0,1.1l11.3,18.1v15c0,0.6,0.5,1.1,1.1,1.1h1.1c0.6,0,1.1-0.5,1.1-1.1v-15
			l11.4-18.1C187.1,8.3,187.2,7.9,187,7.5z"/>
		<path fill="#FFFFFF" d="M35.1,11.3c-0.3-4.6-5.1-5.2-7.4-4.1c-2.2,1.1-6.2,1.4-6.6,1.4c-0.4,0-4.4-0.3-6.6-1.4
			C12,6.1,7.3,6.8,7,11.3c-0.3,4.6-1.1,5.9,2.2,14.5c3.3,8.6,0.6,14.9,4.6,14.9c4,0,3.9-11.7,7.2-11.7c3.3,0.1,3.2,11.7,7.2,11.7
			c4.1,0,1.4-6.3,4.6-14.9C36.2,17.3,35.4,15.9,35.1,11.3z"/>
	</g>
	<g>
		<path fill="#FFFFFF" d="M4.9,59.4h3.8c2.7,0,3.8,1.2,3.8,2.8c0,1.5-1,2.3-2.2,2.6v0c1.4,0.3,2.6,1.2,2.6,2.7c0,1.7-1.1,3-3.8,3
			H4.9V59.4z M8.6,64.5c1.9,0,3.1-0.7,3.1-2.2c0-1.5-0.9-2.2-3-2.2h-3v4.4H8.6z M9.1,69.9c2.1,0,3-0.9,3-2.3c0-1.6-1.3-2.4-3.4-2.4
			h-3v4.7H9.1z"/>
		<path fill="#FFFFFF" d="M14.6,66.6c0-2.8,1.7-4.1,3.4-4.1c1.9,0,3.2,1.6,3.2,4.1v0.1h-5.8c0,2.2,1.2,3.5,2.7,3.5
			c1.2,0,2-0.6,2.6-1.7l0.5,0.3c-0.7,1.2-1.6,2-3.1,2C16.1,70.8,14.6,69.2,14.6,66.6z M20.3,66c-0.1-1.6-0.9-2.9-2.4-2.9
			c-1.2,0-2.4,1-2.6,2.9H20.3z"/>
		<path fill="#FFFFFF" d="M25.9,69.3l0.5-0.4c0.6,0.8,1.3,1.2,2.5,1.2c1.5,0,2.3-0.6,2.3-1.6s-0.6-1.4-2.4-1.8c-2-0.5-2.7-1-2.7-2.3
			c0-1,0.9-2,2.6-2c1.3,0,2.2,0.5,2.8,1.2l-0.5,0.5c-0.6-0.7-1.3-1-2.4-1c-1.3,0-1.9,0.7-1.9,1.3c0,0.8,0.5,1.2,2,1.6
			c2.2,0.6,3,1.1,3,2.5c0,1.4-1.2,2.2-3,2.2C27.5,70.7,26.5,70.1,25.9,69.3z"/>
		<path fill="#FFFFFF" d="M33.6,66.6c0-2.8,1.7-4.1,3.4-4.1c1.9,0,3.2,1.6,3.2,4.1v0.1h-5.8c0,2.2,1.2,3.5,2.7,3.5
			c1.2,0,2-0.6,2.6-1.7l0.5,0.3c-0.7,1.2-1.6,2-3.1,2C35.2,70.8,33.6,69.2,33.6,66.6z M39.4,66c-0.1-1.6-0.9-2.9-2.4-2.9
			c-1.2,0-2.4,1-2.6,2.9H39.4z"/>
		<path fill="#FFFFFF" d="M42.3,59.4H43v11.2h-0.7V59.4z"/>
		<path fill="#FFFFFF" d="M45.2,66.6c0-2.8,1.7-4.1,3.4-4.1c1.9,0,3.2,1.6,3.2,4.1v0.1H46c0,2.2,1.2,3.5,2.7,3.5
			c1.2,0,2-0.6,2.6-1.7l0.5,0.3c-0.7,1.2-1.6,2-3.1,2C46.8,70.8,45.2,69.2,45.2,66.6z M51,66c-0.1-1.6-0.9-2.9-2.4-2.9
			c-1.2,0-2.4,1-2.6,2.9H51z"/>
		<path fill="#FFFFFF" d="M53.4,66.6c0-2.8,1.7-4.2,3.4-4.2c1.6,0,2.5,1,3,2.1l-0.6,0.3c-0.5-1.1-1.1-1.8-2.4-1.8s-2.7,0.9-2.7,3.5
			c0,2.2,1.2,3.5,2.7,3.5c1.2,0,1.9-0.6,2.5-1.8l0.6,0.3c-0.7,1.4-1.6,2.2-3.1,2.2C54.9,70.8,53.4,69.2,53.4,66.6z"/>
		<path fill="#FFFFFF" d="M62.3,68.8v-5.5H61v-0.7h1.4v-2.9h0.7v2.9h2.1v0.7h-2.1v5.4c0,0.8,0.3,1.3,1.3,1.3c0.3,0,0.6,0,0.8-0.1
			v0.7c-0.3,0-0.6,0.1-0.9,0.1C63,70.7,62.3,70.2,62.3,68.8z"/>
		<path fill="#FFFFFF" d="M67.2,59.7H68v0.9h-0.8V59.7z M67.2,62.6H68v8h-0.7V62.6z"/>
		<path fill="#FFFFFF" d="M69.8,62.6h0.8l2.5,7.1h0l2.5-7.1h0.8l-3,8h-0.7L69.8,62.6z"/>
		<path fill="#FFFFFF" d="M77.8,66.6c0-2.8,1.7-4.1,3.4-4.1c1.9,0,3.2,1.6,3.2,4.1v0.1h-5.8c0,2.2,1.2,3.5,2.7,3.5
			c1.2,0,2-0.6,2.6-1.7l0.5,0.3c-0.7,1.2-1.6,2-3.1,2C79.3,70.8,77.8,69.2,77.8,66.6z M83.5,66c-0.1-1.6-0.9-2.9-2.4-2.9
			c-1.2,0-2.4,1-2.6,2.9H83.5z"/>
		<path fill="#FFFFFF" d="M87,70.6h-0.4v-1.2h1v1.1L87,72.1h-0.3L87,70.6z"/>
		<path fill="#FFFFFF" d="M93.7,59.7h0.8v0.9h-0.8V59.7z M93.8,62.6h0.7v8h-0.7V62.6z"/>
		<path fill="#FFFFFF" d="M97.7,68.8v-5.5h-1.4v-0.7h1.4v-2.9h0.7v2.9h2.1v0.7h-2.1v5.4c0,0.8,0.3,1.3,1.3,1.3c0.3,0,0.6,0,0.8-0.1
			v0.7c-0.3,0-0.6,0.1-0.9,0.1C98.3,70.7,97.7,70.2,97.7,68.8z"/>
		<path fill="#FFFFFF" d="M102.5,60.1v-0.8h0.8v0.8l-0.3,3h-0.3L102.5,60.1z"/>
		<path fill="#FFFFFF" d="M105.3,69.3l0.5-0.4c0.6,0.8,1.3,1.2,2.5,1.2c1.5,0,2.3-0.6,2.3-1.6s-0.6-1.4-2.4-1.8
			c-2-0.5-2.7-1-2.7-2.3c0-1,0.9-2,2.6-2c1.3,0,2.2,0.5,2.8,1.2l-0.5,0.5c-0.6-0.7-1.3-1-2.4-1c-1.3,0-1.9,0.7-1.9,1.3
			c0,0.8,0.5,1.2,2,1.6c2.2,0.6,3,1.1,3,2.5c0,1.4-1.2,2.2-3,2.2C106.9,70.7,105.9,70.1,105.3,69.3z"/>
		<path fill="#FFFFFF" d="M115.7,73.5l0.2-0.6c0.2,0.1,0.5,0.1,1,0.1c1,0,1.4-0.4,1.8-1.4l0.4-1l-3.1-8h0.8l2.6,7.1h0l2.6-7.1h0.8
			l-3.4,8.9c-0.5,1.4-1.1,2.1-2.6,2.1C116.3,73.6,116,73.6,115.7,73.5z"/>
		<path fill="#FFFFFF" d="M124.2,66.6c0-2.6,1.5-4.2,3.5-4.2c2,0,3.5,1.6,3.5,4.2c0,2.5-1.5,4.1-3.5,4.1
			C125.7,70.8,124.2,69.2,124.2,66.6z M130.4,66.6c0-1.9-1-3.5-2.8-3.5c-1.7,0-2.8,1.5-2.8,3.5c0,1.9,1,3.5,2.8,3.5
			C129.4,70.1,130.4,68.6,130.4,66.6z"/>
		<path fill="#FFFFFF" d="M133.2,68.4v-5.8h0.7v5.7c0,1.2,0.5,1.8,1.7,1.8c1.1,0,2-0.6,3-1.5v-6h0.7v8h-0.7v-1.3
			c-0.9,0.8-1.9,1.5-3.1,1.5C133.9,70.8,133.2,69.9,133.2,68.4z"/>
		<path fill="#FFFFFF" d="M141.9,62.6h0.7v1.7h0c0.7-1,1.7-1.8,3.3-1.8h0.2l-0.1,0.7h-0.3c-1.3,0-2.5,0.8-3.1,2.2v5.2h-0.7V62.6z"/>
		<path fill="#FFFFFF" d="M150.6,69.3l0.5-0.4c0.6,0.8,1.3,1.2,2.5,1.2c1.5,0,2.3-0.6,2.3-1.6s-0.6-1.4-2.4-1.8
			c-2-0.5-2.7-1-2.7-2.3c0-1,0.9-2,2.6-2c1.3,0,2.2,0.5,2.8,1.2l-0.5,0.5c-0.6-0.7-1.3-1-2.4-1c-1.3,0-1.9,0.7-1.9,1.3
			c0,0.8,0.5,1.2,2,1.6c2.2,0.6,3,1.1,3,2.5c0,1.4-1.2,2.2-3,2.2C152.1,70.7,151.1,70.1,150.6,69.3z"/>
		<path fill="#FFFFFF" d="M158.7,62.6h0.7V64c0.9-0.8,1.8-1.5,3-1.5c1.3,0,2,0.6,2.2,1.5c0.9-0.8,1.9-1.5,3.1-1.5
			c1.6,0,2.3,0.9,2.3,2.4v5.8h-0.7v-5.7c0-1.2-0.4-1.8-1.7-1.8c-1,0-1.9,0.6-2.9,1.5v6H164v-5.7c0-1.2-0.4-1.8-1.7-1.8
			c-1,0-1.9,0.6-2.9,1.5v6h-0.7V62.6z"/>
		<path fill="#FFFFFF" d="M172.5,59.7h0.8v0.9h-0.8V59.7z M172.6,62.6h0.7v8h-0.7V62.6z"/>
		<path fill="#FFFFFF" d="M176,59.4h0.7v11.2H176V59.4z"/>
		<path fill="#FFFFFF" d="M178.9,66.6c0-2.8,1.7-4.1,3.4-4.1c1.9,0,3.2,1.6,3.2,4.1v0.1h-5.8c0,2.2,1.2,3.5,2.7,3.5
			c1.2,0,2-0.6,2.6-1.7l0.5,0.3c-0.7,1.2-1.6,2-3.1,2C180.5,70.8,178.9,69.2,178.9,66.6z M184.7,66c-0.1-1.6-0.9-2.9-2.4-2.9
			c-1.2,0-2.4,1-2.6,2.9H184.7z"/>
		<path fill="#FFFFFF" d="M187.8,69.4h1v1.2h-1V69.4z"/>
	</g>
</g>
</svg>
